<mxfile host="app.diagrams.net" modified="2022-12-27T00:56:09.170Z" agent="5.0 (Windows NT 10.0; Win64; x64) AppleWebKit/537.36 (KHTML, like Gecko) Chrome/108.0.0.0 Safari/537.36 Edg/108.0.1462.54" etag="EOM2pUnSm3zcFU1kamF7" version="20.7.4" type="github">
  <diagram id="msj6TRXzUkbj3XtdeSZy" name="Page-1">
    <mxGraphModel dx="1195" dy="630" grid="1" gridSize="10" guides="1" tooltips="1" connect="1" arrows="1" fold="1" page="1" pageScale="1" pageWidth="850" pageHeight="1100" background="#ffffff" math="0" shadow="0">
      <root>
        <mxCell id="0" />
        <mxCell id="1" parent="0" />
        <mxCell id="vavf1w2fCHCmIrN-eqjR-23" value="&lt;font face=&quot;consolas&quot; style=&quot;font-size: 15px;&quot;&gt;shvulkan compute example&lt;/font&gt;" style="swimlane;html=1;fontSize=12;startSize=40;labelBackgroundColor=none;whiteSpace=wrap;fontColor=#FFFFFF;fillColor=#4D4D4D;strokeColor=#F5F5F5;strokeWidth=1;rounded=1;swimlaneFillColor=#333333;shadow=1;" parent="1" vertex="1">
          <mxGeometry width="850" height="1100.5" as="geometry" />
        </mxCell>
        <mxCell id="vavf1w2fCHCmIrN-eqjR-227" value="&lt;font style=&quot;font-size: 10px;&quot;&gt;write inputs&lt;/font&gt;" style="swimlane;whiteSpace=wrap;html=1;fontFamily=consolas;fontSize=8;fillColor=#4D4D4D;fontColor=#FAFAFA;strokeColor=#F7F7F7;swimlaneFillColor=#3b3b3b;shadow=1;rounded=1;labelBackgroundColor=none;" parent="vavf1w2fCHCmIrN-eqjR-23" vertex="1">
          <mxGeometry x="555" y="210" width="230" height="630" as="geometry" />
        </mxCell>
        <mxCell id="vavf1w2fCHCmIrN-eqjR-241" value="bind descriptor set 0" style="whiteSpace=wrap;html=1;align=center;fontFamily=consolas;fontSize=8;fontStyle=1;fillColor=#666666;fontColor=#FAFAFA;strokeColor=#F7F7F7;swimlaneFillColor=none;rounded=1;shadow=1;labelBackgroundColor=none;" parent="vavf1w2fCHCmIrN-eqjR-227" vertex="1">
          <mxGeometry x="15" y="240" width="200" height="22.5" as="geometry" />
        </mxCell>
        <mxCell id="-hwlg1iBOtvZtLkaIZbr-11" value="" style="edgeStyle=orthogonalEdgeStyle;rounded=1;sketch=0;orthogonalLoop=1;jettySize=auto;html=1;shadow=1;labelBackgroundColor=none;strokeColor=#F0F0F0;strokeWidth=1;fontFamily=consolas;fontSize=9;fontColor=#FFFFFF;" edge="1" parent="vavf1w2fCHCmIrN-eqjR-227" source="vavf1w2fCHCmIrN-eqjR-143" target="-hwlg1iBOtvZtLkaIZbr-10">
          <mxGeometry relative="1" as="geometry" />
        </mxCell>
        <mxCell id="vavf1w2fCHCmIrN-eqjR-143" value="bind pipeline" style="whiteSpace=wrap;html=1;align=center;fontFamily=consolas;fontSize=8;fontStyle=1;fillColor=#545454;fontColor=#FAFAFA;strokeColor=#F7F7F7;swimlaneFillColor=none;rounded=1;shadow=1;labelBackgroundColor=none;" parent="vavf1w2fCHCmIrN-eqjR-227" vertex="1">
          <mxGeometry x="15" y="140" width="200" height="22.5" as="geometry" />
        </mxCell>
        <mxCell id="-hwlg1iBOtvZtLkaIZbr-12" style="edgeStyle=orthogonalEdgeStyle;rounded=1;sketch=0;orthogonalLoop=1;jettySize=auto;html=1;exitX=0.5;exitY=1;exitDx=0;exitDy=0;entryX=0.5;entryY=0;entryDx=0;entryDy=0;shadow=1;labelBackgroundColor=none;strokeColor=#F0F0F0;strokeWidth=1;fontFamily=consolas;fontSize=9;fontColor=#FFFFFF;" edge="1" parent="vavf1w2fCHCmIrN-eqjR-227" source="-hwlg1iBOtvZtLkaIZbr-10" target="vavf1w2fCHCmIrN-eqjR-241">
          <mxGeometry relative="1" as="geometry" />
        </mxCell>
        <mxCell id="-hwlg1iBOtvZtLkaIZbr-10" value="update descriptor set" style="whiteSpace=wrap;html=1;align=center;fontFamily=consolas;fontSize=8;fontStyle=1;fillColor=#545454;fontColor=#FAFAFA;strokeColor=#F7F7F7;swimlaneFillColor=none;rounded=1;shadow=1;labelBackgroundColor=none;" vertex="1" parent="vavf1w2fCHCmIrN-eqjR-227">
          <mxGeometry x="15" y="190" width="200" height="22.5" as="geometry" />
        </mxCell>
        <mxCell id="-hwlg1iBOtvZtLkaIZbr-16" value="dispatch data to computation units" style="swimlane;whiteSpace=wrap;html=1;fontFamily=consolas;fontSize=8;fillColor=#666666;strokeColor=#F7F7F7;fontColor=#FFFFFF;swimlaneFillColor=#454545;rounded=1;shadow=1;labelBackgroundColor=none;" vertex="1" parent="vavf1w2fCHCmIrN-eqjR-227">
          <mxGeometry x="15" y="295" width="200" height="170" as="geometry" />
        </mxCell>
        <mxCell id="vavf1w2fCHCmIrN-eqjR-267" value="index count:&amp;nbsp; &amp;nbsp; &lt;b&gt;6&lt;/b&gt;&lt;br&gt;first index:&amp;nbsp; &amp;nbsp; &lt;b&gt;0&lt;br&gt;&lt;/b&gt;first vertex:&amp;nbsp; &amp;nbsp;&lt;b&gt;0&lt;/b&gt;" style="text;html=1;align=left;verticalAlign=middle;resizable=0;points=[];autosize=1;strokeColor=none;fillColor=none;fontSize=9;fontFamily=consolas;fontColor=#FAFAFA;shadow=1;labelBackgroundColor=none;" parent="-hwlg1iBOtvZtLkaIZbr-16" vertex="1">
          <mxGeometry x="5" y="32.5" width="110" height="50" as="geometry" />
        </mxCell>
        <mxCell id="vavf1w2fCHCmIrN-eqjR-180" value="end command buffer&lt;span data-darkreader-inline-color=&quot;&quot; style=&quot;font-family: monospace; font-size: 0px; font-weight: 400; text-align: start; --darkreader-inline-color:rgba(222, 220, 217, 0);&quot;&gt;%3CmxGraphModel%3E%3Croot%3E%3CmxCell%20id%3D%220%22%2F%3E%3CmxCell%20id%3D%221%22%20parent%3D%220%22%2F%3E%3CmxCell%20id%3D%222%22%20value%3D%22%22%20style%3D%22endArrow%3Dclassic%3Bhtml%3D1%3Brounded%3D0%3Bshadow%3D0%3BfontFamily%3Dconsolas%3BfontSize%3D8%3BsourcePerimeterSpacing%3D100%3BjumpSize%3D6%3BexitX%3D0.5%3BexitY%3D1%3BexitDx%3D0%3BexitDy%3D0%3BentryX%3D0.5%3BentryY%3D0%3BentryDx%3D0%3BentryDy%3D0%3BfontStyle%3D1%22%20edge%3D%221%22%20target%3D%223%22%20parent%3D%221%22%3E%3CmxGeometry%20width%3D%2250%22%20height%3D%2250%22%20relative%3D%221%22%20as%3D%22geometry%22%3E%3CmxPoint%20x%3D%22648.6100000000001%22%20y%3D%221150%22%20as%3D%22sourcePoint%22%2F%3E%3CmxPoint%20x%3D%22-731.39%22%20y%3D%22395%22%20as%3D%22targetPoint%22%2F%3E%3C%2FmxGeometry%3E%3C%2FmxCell%3E%3CmxCell%20id%3D%223%22%20value%3D%22end%20render%20pass%22%20style%3D%22whiteSpace%3Dwrap%3Bhtml%3D1%3Balign%3Dcenter%3BfontFamily%3Dconsolas%3BfontSize%3D8%3BfontStyle%3D1%22%20vertex%3D%221%22%20parent%3D%221%22%3E%3CmxGeometry%20x%3D%22588.75%22%20y%3D%221172.5%22%20width%3D%22120%22%20height%3D%2222.5%22%20as%3D%22geometry%22%2F%3E%3C%2FmxCell%3E%3C%2Froot%3E%3C%2FmxGraphModel%3E&lt;/span&gt;" style="whiteSpace=wrap;html=1;align=center;fontFamily=consolas;fontSize=8;fontStyle=1;fillColor=#545454;fontColor=#FAFAFA;strokeColor=#F7F7F7;swimlaneFillColor=none;rounded=1;shadow=1;labelBackgroundColor=none;" parent="vavf1w2fCHCmIrN-eqjR-227" vertex="1">
          <mxGeometry x="15" y="490" width="200" height="22.5" as="geometry" />
        </mxCell>
        <mxCell id="vavf1w2fCHCmIrN-eqjR-225" style="edgeStyle=none;rounded=0;jumpSize=6;orthogonalLoop=1;jettySize=auto;html=1;exitX=0.5;exitY=1;exitDx=0;exitDy=0;entryX=0.5;entryY=0;entryDx=0;entryDy=0;shadow=1;fontFamily=consolas;fontSize=8;sourcePerimeterSpacing=100;strokeColor=#F7F7F7;fontColor=#FAFAFA;labelBackgroundColor=none;" parent="vavf1w2fCHCmIrN-eqjR-227" source="vavf1w2fCHCmIrN-eqjR-180" target="vavf1w2fCHCmIrN-eqjR-182" edge="1">
          <mxGeometry relative="1" as="geometry" />
        </mxCell>
        <mxCell id="vavf1w2fCHCmIrN-eqjR-182" value="submit to graphics queue" style="whiteSpace=wrap;html=1;align=center;fontFamily=consolas;fontSize=8;fontStyle=1;fillColor=#666666;fontColor=#FAFAFA;strokeColor=#F7F7F7;swimlaneFillColor=none;rounded=1;shadow=1;labelBackgroundColor=none;" parent="vavf1w2fCHCmIrN-eqjR-227" vertex="1">
          <mxGeometry x="15" y="537" width="200" height="22.5" as="geometry" />
        </mxCell>
        <mxCell id="vavf1w2fCHCmIrN-eqjR-186" value="wait for fence to be signaled" style="whiteSpace=wrap;html=1;align=center;fontFamily=consolas;fontSize=8;fontStyle=1;fillColor=#666666;fontColor=#FAFAFA;strokeColor=#F7F7F7;swimlaneFillColor=none;rounded=1;shadow=1;labelBackgroundColor=none;" parent="vavf1w2fCHCmIrN-eqjR-227" vertex="1">
          <mxGeometry x="15" y="590" width="200" height="22.5" as="geometry" />
        </mxCell>
        <mxCell id="-hwlg1iBOtvZtLkaIZbr-35" style="edgeStyle=orthogonalEdgeStyle;rounded=1;sketch=0;orthogonalLoop=1;jettySize=auto;html=1;exitX=0.5;exitY=1;exitDx=0;exitDy=0;entryX=0.5;entryY=0;entryDx=0;entryDy=0;shadow=1;labelBackgroundColor=none;strokeColor=#F0F0F0;strokeWidth=1;fontFamily=consolas;fontSize=9;fontColor=#FFFFFF;" edge="1" parent="vavf1w2fCHCmIrN-eqjR-227" target="-hwlg1iBOtvZtLkaIZbr-16">
          <mxGeometry x="1" y="-25" relative="1" as="geometry">
            <mxPoint x="114.88" y="262.5" as="sourcePoint" />
            <mxPoint x="114.88" y="290" as="targetPoint" />
            <mxPoint x="10" y="20" as="offset" />
          </mxGeometry>
        </mxCell>
        <mxCell id="-hwlg1iBOtvZtLkaIZbr-36" style="edgeStyle=orthogonalEdgeStyle;rounded=1;sketch=0;orthogonalLoop=1;jettySize=auto;html=1;exitX=0.5;exitY=1;exitDx=0;exitDy=0;entryX=0.5;entryY=0;entryDx=0;entryDy=0;shadow=1;labelBackgroundColor=none;strokeColor=#F0F0F0;strokeWidth=1;fontFamily=consolas;fontSize=9;fontColor=#FFFFFF;" edge="1" parent="vavf1w2fCHCmIrN-eqjR-227" target="vavf1w2fCHCmIrN-eqjR-186">
          <mxGeometry x="1" y="-25" relative="1" as="geometry">
            <mxPoint x="114.80000000000007" y="559.5" as="sourcePoint" />
            <mxPoint x="114.91999999999996" y="592" as="targetPoint" />
            <mxPoint x="10" y="20" as="offset" />
          </mxGeometry>
        </mxCell>
        <mxCell id="-hwlg1iBOtvZtLkaIZbr-38" style="edgeStyle=none;rounded=0;jumpSize=6;orthogonalLoop=1;jettySize=auto;html=1;exitX=0.5;exitY=1;exitDx=0;exitDy=0;entryX=0.5;entryY=0;entryDx=0;entryDy=0;shadow=1;fontFamily=consolas;fontSize=8;sourcePerimeterSpacing=100;strokeColor=#F7F7F7;fontColor=#FAFAFA;labelBackgroundColor=none;" edge="1" parent="vavf1w2fCHCmIrN-eqjR-227">
          <mxGeometry relative="1" as="geometry">
            <mxPoint x="114.75999999999999" y="465.5" as="sourcePoint" />
            <mxPoint x="114.75999999999999" y="490" as="targetPoint" />
          </mxGeometry>
        </mxCell>
        <mxCell id="-hwlg1iBOtvZtLkaIZbr-54" value="" style="edgeStyle=orthogonalEdgeStyle;rounded=1;sketch=0;orthogonalLoop=1;jettySize=auto;html=1;shadow=1;labelBackgroundColor=none;strokeColor=#F0F0F0;strokeWidth=1;fontFamily=consolas;fontSize=9;fontColor=#FFFFFF;" edge="1" parent="vavf1w2fCHCmIrN-eqjR-227" source="-hwlg1iBOtvZtLkaIZbr-55">
          <mxGeometry relative="1" as="geometry">
            <mxPoint x="115" y="140" as="targetPoint" />
          </mxGeometry>
        </mxCell>
        <mxCell id="-hwlg1iBOtvZtLkaIZbr-55" value="begin command buffer" style="whiteSpace=wrap;html=1;align=center;fontFamily=consolas;fontSize=8;fontStyle=1;fillColor=#545454;fontColor=#FAFAFA;strokeColor=#F7F7F7;swimlaneFillColor=none;rounded=1;shadow=1;labelBackgroundColor=none;" vertex="1" parent="vavf1w2fCHCmIrN-eqjR-227">
          <mxGeometry x="15" y="90" width="200" height="22.5" as="geometry" />
        </mxCell>
        <mxCell id="-hwlg1iBOtvZtLkaIZbr-56" value="" style="edgeStyle=orthogonalEdgeStyle;rounded=1;sketch=0;orthogonalLoop=1;jettySize=auto;html=1;shadow=1;labelBackgroundColor=none;strokeColor=#F0F0F0;strokeWidth=1;fontFamily=consolas;fontSize=9;fontColor=#FFFFFF;" edge="1" parent="vavf1w2fCHCmIrN-eqjR-227" source="-hwlg1iBOtvZtLkaIZbr-57">
          <mxGeometry relative="1" as="geometry">
            <mxPoint x="114.99999999999977" y="90.00000000000011" as="targetPoint" />
          </mxGeometry>
        </mxCell>
        <mxCell id="-hwlg1iBOtvZtLkaIZbr-57" value="reset fence" style="whiteSpace=wrap;html=1;align=center;fontFamily=consolas;fontSize=8;fontStyle=1;fillColor=#545454;fontColor=#FAFAFA;strokeColor=#F7F7F7;swimlaneFillColor=none;rounded=1;shadow=1;labelBackgroundColor=none;" vertex="1" parent="vavf1w2fCHCmIrN-eqjR-227">
          <mxGeometry x="15" y="40" width="200" height="22.5" as="geometry" />
        </mxCell>
        <mxCell id="jcEzH6TltJ--Tu3BSwTK-43" value="" style="endArrow=classic;html=1;rounded=1;exitX=0.5;exitY=1;exitDx=0;exitDy=0;fontFamily=consolas;fontSize=8;fontColor=#FAFAFA;strokeColor=#F0F0F0;shadow=1;strokeWidth=1;labelBackgroundColor=none;entryX=0.5;entryY=0;entryDx=0;entryDy=0;" parent="vavf1w2fCHCmIrN-eqjR-23" edge="1" target="vavf1w2fCHCmIrN-eqjR-252">
          <mxGeometry relative="1" as="geometry">
            <mxPoint x="425" y="107.5" as="sourcePoint" />
            <mxPoint x="425" y="170" as="targetPoint" />
            <Array as="points">
              <mxPoint x="425" y="150" />
            </Array>
          </mxGeometry>
        </mxCell>
        <mxCell id="jcEzH6TltJ--Tu3BSwTK-53" value="copied to" style="edgeLabel;html=1;align=center;verticalAlign=middle;resizable=0;points=[];fontFamily=consolas;fontSize=8;fontColor=#FFFFFF;labelBackgroundColor=none;" parent="jcEzH6TltJ--Tu3BSwTK-43" vertex="1" connectable="0">
          <mxGeometry x="0.1005" y="-1" relative="1" as="geometry">
            <mxPoint x="31" y="5" as="offset" />
          </mxGeometry>
        </mxCell>
        <mxCell id="jcEzH6TltJ--Tu3BSwTK-64" value="&lt;b style=&quot;font-size: 8px;&quot;&gt;build pipeline&lt;/b&gt;" style="whiteSpace=wrap;html=1;align=center;verticalAlign=middle;treeFolding=1;treeMoving=1;newEdgeStyle={&quot;edgeStyle&quot;:&quot;elbowEdgeStyle&quot;,&quot;startArrow&quot;:&quot;none&quot;,&quot;endArrow&quot;:&quot;none&quot;};fontSize=8;fontFamily=consolas;fillColor=#4D4D4D;fontColor=#FAFAFA;strokeColor=#F7F7F7;rounded=1;shadow=1;labelBackgroundColor=none;" parent="vavf1w2fCHCmIrN-eqjR-23" vertex="1" collapsed="1">
          <mxGeometry x="365" y="210" width="120" height="30" as="geometry" />
        </mxCell>
        <mxCell id="jcEzH6TltJ--Tu3BSwTK-93" value="descriptor set 0 (input/output data)" style="swimlane;whiteSpace=wrap;html=1;fontSize=8;fontFamily=consolas;fillColor=#666666;fontColor=#FFFFFF;strokeColor=#F7F7F7;rounded=1;swimlaneFillColor=#3B3B3B;shadow=1;labelBackgroundColor=none;" parent="vavf1w2fCHCmIrN-eqjR-23" vertex="1">
          <mxGeometry x="65" y="210" width="235" height="220" as="geometry" />
        </mxCell>
        <mxCell id="jcEzH6TltJ--Tu3BSwTK-94" value="buffer info" style="swimlane;whiteSpace=wrap;html=1;fontSize=8;fontFamily=consolas;fillColor=#666666;strokeColor=#F7F7F7;fontColor=#FFFFFF;rounded=1;swimlaneFillColor=#4D4D4D;shadow=1;labelBackgroundColor=none;" parent="jcEzH6TltJ--Tu3BSwTK-93" vertex="1">
          <mxGeometry x="12.5" y="40" width="200" height="70" as="geometry" />
        </mxCell>
        <mxCell id="jcEzH6TltJ--Tu3BSwTK-95" value="buffer:&amp;nbsp; &amp;nbsp;&amp;nbsp;&lt;b style=&quot;font-size: 8px;&quot;&gt;0x001&lt;/b&gt;&lt;br style=&quot;font-size: 8px;&quot;&gt;offset:&amp;nbsp; &amp;nbsp; &lt;b style=&quot;font-size: 8px;&quot;&gt;0&lt;br style=&quot;font-size: 8px;&quot;&gt;&lt;/b&gt;range:&amp;nbsp; &amp;nbsp; &amp;nbsp;&lt;b style=&quot;font-size: 8px;&quot;&gt;4 (each input value is 4 B,&lt;br&gt;&amp;nbsp; &amp;nbsp; &amp;nbsp; &amp;nbsp; &amp;nbsp; &amp;nbsp;with a total of 256 B)&lt;br&gt;&lt;/b&gt;" style="text;html=1;align=left;verticalAlign=middle;resizable=0;points=[];autosize=1;strokeColor=none;fillColor=none;fontSize=8;fontFamily=consolas;fontColor=#FAFAFA;labelBackgroundColor=none;shadow=1;" parent="jcEzH6TltJ--Tu3BSwTK-94" vertex="1">
          <mxGeometry x="20" y="20" width="190" height="50" as="geometry" />
        </mxCell>
        <mxCell id="jcEzH6TltJ--Tu3BSwTK-96" value="info" style="swimlane;whiteSpace=wrap;html=1;fontSize=8;fontFamily=consolas;fillColor=#666666;strokeColor=#F7F7F7;fontColor=#FFFFFF;rounded=1;swimlaneFillColor=#4D4D4D;shadow=1;labelBackgroundColor=none;" parent="jcEzH6TltJ--Tu3BSwTK-93" vertex="1">
          <mxGeometry x="12.5" y="130" width="200" height="70" as="geometry" />
        </mxCell>
        <mxCell id="jcEzH6TltJ--Tu3BSwTK-97" value="usage:&amp;nbsp; &amp;nbsp;&amp;nbsp;&lt;b style=&quot;font-size: 8px;&quot;&gt;STORAGE&lt;/b&gt;&lt;br style=&quot;font-size: 8px;&quot;&gt;stage:&amp;nbsp; &amp;nbsp; &lt;b style=&quot;font-size: 8px;&quot;&gt;COMPUTE SHADER&lt;/b&gt;&lt;br style=&quot;font-size: 8px;&quot;&gt;binding:&amp;nbsp; &lt;b&gt;0&lt;/b&gt;" style="text;html=1;align=left;verticalAlign=middle;resizable=0;points=[];autosize=1;strokeColor=none;fillColor=none;fontSize=8;fontFamily=consolas;fontColor=#FAFAFA;labelBackgroundColor=none;shadow=1;" parent="jcEzH6TltJ--Tu3BSwTK-96" vertex="1">
          <mxGeometry x="30" y="25" width="130" height="40" as="geometry" />
        </mxCell>
        <mxCell id="vavf1w2fCHCmIrN-eqjR-3" value="&lt;b style=&quot;font-size: 8px;&quot;&gt;compute shader inputs&lt;/b&gt;" style="rounded=1;whiteSpace=wrap;html=1;labelBackgroundColor=none;fontFamily=consolas;fontSize=8;fillColor=#545454;fontColor=#FAFAFA;strokeColor=#FFFFFF;strokeWidth=1;shadow=1;swimlaneFillColor=none;" parent="vavf1w2fCHCmIrN-eqjR-23" vertex="1">
          <mxGeometry x="65" y="107.5" width="720" height="20" as="geometry" />
        </mxCell>
        <mxCell id="vavf1w2fCHCmIrN-eqjR-222" style="edgeStyle=none;rounded=0;jumpSize=6;orthogonalLoop=1;jettySize=auto;html=1;exitX=0.5;exitY=1;exitDx=0;exitDy=0;entryX=0.5;entryY=0;entryDx=0;entryDy=0;shadow=1;fontFamily=consolas;fontSize=8;sourcePerimeterSpacing=100;strokeColor=#F7F7F7;fontColor=#FAFAFA;labelBackgroundColor=none;" parent="vavf1w2fCHCmIrN-eqjR-23" target="vavf1w2fCHCmIrN-eqjR-175" edge="1">
          <mxGeometry relative="1" as="geometry">
            <mxPoint x="670" y="602.5" as="sourcePoint" />
          </mxGeometry>
        </mxCell>
        <mxCell id="vavf1w2fCHCmIrN-eqjR-224" style="edgeStyle=none;rounded=0;jumpSize=6;orthogonalLoop=1;jettySize=auto;html=1;exitX=0.5;exitY=1;exitDx=0;exitDy=0;entryX=0.5;entryY=0;entryDx=0;entryDy=0;shadow=1;fontFamily=consolas;fontSize=8;sourcePerimeterSpacing=100;strokeColor=#F7F7F7;fontColor=#FAFAFA;labelBackgroundColor=none;" parent="vavf1w2fCHCmIrN-eqjR-23" source="vavf1w2fCHCmIrN-eqjR-175" edge="1">
          <mxGeometry relative="1" as="geometry">
            <mxPoint x="670" y="697.5" as="targetPoint" />
          </mxGeometry>
        </mxCell>
        <mxCell id="vavf1w2fCHCmIrN-eqjR-13" value="256 B" style="text;html=1;strokeColor=none;fillColor=none;align=right;verticalAlign=bottom;whiteSpace=wrap;rounded=0;fontFamily=consolas;fontSize=9;fontColor=#FFFFFF;" parent="vavf1w2fCHCmIrN-eqjR-23" vertex="1">
          <mxGeometry x="735" y="60" width="50" height="17.5" as="geometry" />
        </mxCell>
        <mxCell id="vavf1w2fCHCmIrN-eqjR-25" value="0 B" style="text;html=1;strokeColor=none;fillColor=none;align=left;verticalAlign=bottom;whiteSpace=wrap;rounded=0;fontFamily=consolas;fontSize=9;fontColor=#FFFFFF;" parent="vavf1w2fCHCmIrN-eqjR-23" vertex="1">
          <mxGeometry x="65" y="60" width="50" height="17.5" as="geometry" />
        </mxCell>
        <mxCell id="vavf1w2fCHCmIrN-eqjR-252" value="&lt;font style=&quot;font-size: 8px;&quot; face=&quot;consolas&quot;&gt;&lt;b style=&quot;font-size: 8px;&quot;&gt;device local descriptor buffer&lt;br style=&quot;font-size: 8px;&quot;&gt;(0x001)&lt;/b&gt;&lt;/font&gt;" style="rounded=1;whiteSpace=wrap;html=1;shadow=1;glass=0;labelBackgroundColor=none;strokeColor=#FFFFFF;strokeWidth=1;fontColor=#FAFAFA;fillColor=#666666;fontSize=8;swimlaneFillColor=none;" parent="vavf1w2fCHCmIrN-eqjR-23" vertex="1">
          <mxGeometry x="65" y="157.5" width="720" height="30" as="geometry" />
        </mxCell>
        <mxCell id="vavf1w2fCHCmIrN-eqjR-260" value="256 B" style="text;html=1;strokeColor=none;fillColor=none;align=right;verticalAlign=bottom;whiteSpace=wrap;rounded=0;fontFamily=consolas;fontSize=9;fontColor=#FFFFFF;" parent="vavf1w2fCHCmIrN-eqjR-23" vertex="1">
          <mxGeometry x="735" y="140" width="50" height="17.5" as="geometry" />
        </mxCell>
        <mxCell id="vavf1w2fCHCmIrN-eqjR-262" value="0 B" style="text;html=1;strokeColor=none;fillColor=none;align=left;verticalAlign=bottom;whiteSpace=wrap;rounded=0;fontFamily=consolas;fontSize=9;fontColor=#FFFFFF;" parent="vavf1w2fCHCmIrN-eqjR-23" vertex="1">
          <mxGeometry x="65" y="140" width="50" height="17.5" as="geometry" />
        </mxCell>
        <mxCell id="-hwlg1iBOtvZtLkaIZbr-1" value="&lt;font face=&quot;consolas&quot;&gt;&lt;b&gt;host visible staging buffer&lt;br&gt;(0x000)&lt;br&gt;&lt;/b&gt;&lt;/font&gt;" style="rounded=1;whiteSpace=wrap;html=1;shadow=1;glass=0;labelBackgroundColor=none;strokeColor=#FFFFFF;strokeWidth=1;fontColor=#FAFAFA;fillColor=#666666;fontSize=8;swimlaneFillColor=none;" vertex="1" parent="vavf1w2fCHCmIrN-eqjR-23">
          <mxGeometry x="65" y="77.5" width="720" height="30" as="geometry" />
        </mxCell>
        <mxCell id="-hwlg1iBOtvZtLkaIZbr-2" style="edgeStyle=orthogonalEdgeStyle;rounded=1;sketch=0;orthogonalLoop=1;jettySize=auto;html=1;exitX=0.5;exitY=1;exitDx=0;exitDy=0;shadow=1;labelBackgroundColor=none;strokeColor=#F0F0F0;strokeWidth=1;fontFamily=consolas;fontSize=9;fontColor=#FFFFFF;entryX=0.5;entryY=0;entryDx=0;entryDy=0;" edge="1" parent="vavf1w2fCHCmIrN-eqjR-23" source="vavf1w2fCHCmIrN-eqjR-252">
          <mxGeometry relative="1" as="geometry">
            <mxPoint x="425" y="210" as="targetPoint" />
          </mxGeometry>
        </mxCell>
        <mxCell id="-hwlg1iBOtvZtLkaIZbr-9" style="edgeStyle=elbowEdgeStyle;rounded=1;sketch=0;orthogonalLoop=1;jettySize=auto;html=1;startArrow=none;endArrow=none;exitX=0;exitY=0.5;exitDx=0;exitDy=0;shadow=1;labelBackgroundColor=none;strokeColor=#F0F0F0;strokeWidth=1;fontFamily=consolas;fontSize=9;fontColor=#FFFFFF;entryX=0.998;entryY=0.071;entryDx=0;entryDy=0;entryPerimeter=0;" edge="1" parent="vavf1w2fCHCmIrN-eqjR-23" source="jcEzH6TltJ--Tu3BSwTK-64" target="jcEzH6TltJ--Tu3BSwTK-93">
          <mxGeometry relative="1" as="geometry">
            <mxPoint x="310" y="224.93548387096774" as="targetPoint" />
          </mxGeometry>
        </mxCell>
        <mxCell id="-hwlg1iBOtvZtLkaIZbr-39" value="&lt;font style=&quot;font-size: 10px;&quot;&gt;read outputs&lt;/font&gt;" style="swimlane;whiteSpace=wrap;html=1;fontFamily=consolas;fontSize=8;fillColor=#4D4D4D;fontColor=#FAFAFA;strokeColor=#F7F7F7;swimlaneFillColor=#3b3b3b;shadow=1;rounded=1;labelBackgroundColor=none;" vertex="1" parent="vavf1w2fCHCmIrN-eqjR-23">
          <mxGeometry x="330" y="260" width="190" height="390" as="geometry" />
        </mxCell>
        <mxCell id="-hwlg1iBOtvZtLkaIZbr-75" style="edgeStyle=orthogonalEdgeStyle;rounded=1;sketch=0;orthogonalLoop=1;jettySize=auto;html=1;exitX=0.5;exitY=1;exitDx=0;exitDy=0;entryX=0.5;entryY=0;entryDx=0;entryDy=0;shadow=1;labelBackgroundColor=none;strokeColor=#F0F0F0;strokeWidth=1;fontFamily=consolas;fontSize=9;fontColor=#FFFFFF;" edge="1" parent="-hwlg1iBOtvZtLkaIZbr-39" source="-hwlg1iBOtvZtLkaIZbr-47" target="-hwlg1iBOtvZtLkaIZbr-49">
          <mxGeometry relative="1" as="geometry" />
        </mxCell>
        <mxCell id="-hwlg1iBOtvZtLkaIZbr-47" value="end command buffer&lt;span data-darkreader-inline-color=&quot;&quot; style=&quot;font-family: monospace; font-size: 0px; font-weight: 400; text-align: start; --darkreader-inline-color:rgba(222, 220, 217, 0);&quot;&gt;%3CmxGraphModel%3E%3Croot%3E%3CmxCell%20id%3D%220%22%2F%3E%3CmxCell%20id%3D%221%22%20parent%3D%220%22%2F%3E%3CmxCell%20id%3D%222%22%20value%3D%22%22%20style%3D%22endArrow%3Dclassic%3Bhtml%3D1%3Brounded%3D0%3Bshadow%3D0%3BfontFamily%3Dconsolas%3BfontSize%3D8%3BsourcePerimeterSpacing%3D100%3BjumpSize%3D6%3BexitX%3D0.5%3BexitY%3D1%3BexitDx%3D0%3BexitDy%3D0%3BentryX%3D0.5%3BentryY%3D0%3BentryDx%3D0%3BentryDy%3D0%3BfontStyle%3D1%22%20edge%3D%221%22%20target%3D%223%22%20parent%3D%221%22%3E%3CmxGeometry%20width%3D%2250%22%20height%3D%2250%22%20relative%3D%221%22%20as%3D%22geometry%22%3E%3CmxPoint%20x%3D%22648.6100000000001%22%20y%3D%221150%22%20as%3D%22sourcePoint%22%2F%3E%3CmxPoint%20x%3D%22-731.39%22%20y%3D%22395%22%20as%3D%22targetPoint%22%2F%3E%3C%2FmxGeometry%3E%3C%2FmxCell%3E%3CmxCell%20id%3D%223%22%20value%3D%22end%20render%20pass%22%20style%3D%22whiteSpace%3Dwrap%3Bhtml%3D1%3Balign%3Dcenter%3BfontFamily%3Dconsolas%3BfontSize%3D8%3BfontStyle%3D1%22%20vertex%3D%221%22%20parent%3D%221%22%3E%3CmxGeometry%20x%3D%22588.75%22%20y%3D%221172.5%22%20width%3D%22120%22%20height%3D%2222.5%22%20as%3D%22geometry%22%2F%3E%3C%2FmxCell%3E%3C%2Froot%3E%3C%2FmxGraphModel%3E&lt;/span&gt;" style="whiteSpace=wrap;html=1;align=center;fontFamily=consolas;fontSize=8;fontStyle=1;fillColor=#545454;fontColor=#FAFAFA;strokeColor=#F7F7F7;swimlaneFillColor=none;rounded=1;shadow=1;labelBackgroundColor=none;" vertex="1" parent="-hwlg1iBOtvZtLkaIZbr-39">
          <mxGeometry x="16" y="240" width="160" height="22.5" as="geometry" />
        </mxCell>
        <mxCell id="-hwlg1iBOtvZtLkaIZbr-76" style="edgeStyle=orthogonalEdgeStyle;rounded=1;sketch=0;orthogonalLoop=1;jettySize=auto;html=1;exitX=0.5;exitY=1;exitDx=0;exitDy=0;entryX=0.5;entryY=0;entryDx=0;entryDy=0;shadow=1;labelBackgroundColor=none;strokeColor=#F0F0F0;strokeWidth=1;fontFamily=consolas;fontSize=9;fontColor=#FFFFFF;" edge="1" parent="-hwlg1iBOtvZtLkaIZbr-39" source="-hwlg1iBOtvZtLkaIZbr-49" target="-hwlg1iBOtvZtLkaIZbr-50">
          <mxGeometry relative="1" as="geometry" />
        </mxCell>
        <mxCell id="-hwlg1iBOtvZtLkaIZbr-49" value="submit to graphics queue" style="whiteSpace=wrap;html=1;align=center;fontFamily=consolas;fontSize=8;fontStyle=1;fillColor=#666666;fontColor=#FAFAFA;strokeColor=#F7F7F7;swimlaneFillColor=none;rounded=1;shadow=1;labelBackgroundColor=none;" vertex="1" parent="-hwlg1iBOtvZtLkaIZbr-39">
          <mxGeometry x="16" y="290" width="160" height="22.5" as="geometry" />
        </mxCell>
        <mxCell id="-hwlg1iBOtvZtLkaIZbr-50" value="wait for fence to be signaled" style="whiteSpace=wrap;html=1;align=center;fontFamily=consolas;fontSize=8;fontStyle=1;fillColor=#666666;fontColor=#FAFAFA;strokeColor=#F7F7F7;swimlaneFillColor=none;rounded=1;shadow=1;labelBackgroundColor=none;" vertex="1" parent="-hwlg1iBOtvZtLkaIZbr-39">
          <mxGeometry x="16" y="340" width="160" height="22.5" as="geometry" />
        </mxCell>
        <mxCell id="-hwlg1iBOtvZtLkaIZbr-67" style="edgeStyle=orthogonalEdgeStyle;rounded=1;sketch=0;orthogonalLoop=1;jettySize=auto;html=1;exitX=0.5;exitY=1;exitDx=0;exitDy=0;entryX=0.5;entryY=0;entryDx=0;entryDy=0;shadow=1;labelBackgroundColor=none;strokeColor=#F0F0F0;strokeWidth=1;fontFamily=consolas;fontSize=9;fontColor=#FFFFFF;" edge="1" parent="-hwlg1iBOtvZtLkaIZbr-39" source="-hwlg1iBOtvZtLkaIZbr-60" target="-hwlg1iBOtvZtLkaIZbr-63">
          <mxGeometry relative="1" as="geometry" />
        </mxCell>
        <mxCell id="-hwlg1iBOtvZtLkaIZbr-60" value="begin command buffer" style="whiteSpace=wrap;html=1;align=center;fontFamily=consolas;fontSize=8;fontStyle=1;fillColor=#545454;fontColor=#FAFAFA;strokeColor=#F7F7F7;swimlaneFillColor=none;rounded=1;shadow=1;labelBackgroundColor=none;" vertex="1" parent="-hwlg1iBOtvZtLkaIZbr-39">
          <mxGeometry x="15" y="90" width="160" height="22.5" as="geometry" />
        </mxCell>
        <mxCell id="-hwlg1iBOtvZtLkaIZbr-66" style="edgeStyle=orthogonalEdgeStyle;rounded=1;sketch=0;orthogonalLoop=1;jettySize=auto;html=1;exitX=0.5;exitY=1;exitDx=0;exitDy=0;entryX=0.5;entryY=0;entryDx=0;entryDy=0;shadow=1;labelBackgroundColor=none;strokeColor=#F0F0F0;strokeWidth=1;fontFamily=consolas;fontSize=9;fontColor=#FFFFFF;" edge="1" parent="-hwlg1iBOtvZtLkaIZbr-39" source="-hwlg1iBOtvZtLkaIZbr-62" target="-hwlg1iBOtvZtLkaIZbr-60">
          <mxGeometry relative="1" as="geometry" />
        </mxCell>
        <mxCell id="-hwlg1iBOtvZtLkaIZbr-62" value="reset fence" style="whiteSpace=wrap;html=1;align=center;fontFamily=consolas;fontSize=8;fontStyle=1;fillColor=#545454;fontColor=#FAFAFA;strokeColor=#F7F7F7;swimlaneFillColor=none;rounded=1;shadow=1;labelBackgroundColor=none;" vertex="1" parent="-hwlg1iBOtvZtLkaIZbr-39">
          <mxGeometry x="15" y="40" width="160" height="22.5" as="geometry" />
        </mxCell>
        <mxCell id="-hwlg1iBOtvZtLkaIZbr-68" style="edgeStyle=orthogonalEdgeStyle;rounded=1;sketch=0;orthogonalLoop=1;jettySize=auto;html=1;exitX=0.5;exitY=1;exitDx=0;exitDy=0;entryX=0.5;entryY=0;entryDx=0;entryDy=0;shadow=1;labelBackgroundColor=none;strokeColor=#F0F0F0;strokeWidth=1;fontFamily=consolas;fontSize=9;fontColor=#FFFFFF;" edge="1" parent="-hwlg1iBOtvZtLkaIZbr-39" source="-hwlg1iBOtvZtLkaIZbr-63" target="-hwlg1iBOtvZtLkaIZbr-65">
          <mxGeometry relative="1" as="geometry" />
        </mxCell>
        <mxCell id="-hwlg1iBOtvZtLkaIZbr-63" value="copy buffer 0x001 to buffer 0x000" style="whiteSpace=wrap;html=1;align=center;fontFamily=consolas;fontSize=8;fontStyle=1;fillColor=#545454;fontColor=#FAFAFA;strokeColor=#F7F7F7;swimlaneFillColor=none;rounded=1;shadow=1;labelBackgroundColor=none;" vertex="1" parent="-hwlg1iBOtvZtLkaIZbr-39">
          <mxGeometry x="15" y="140" width="161" height="22.5" as="geometry" />
        </mxCell>
        <mxCell id="-hwlg1iBOtvZtLkaIZbr-69" style="edgeStyle=orthogonalEdgeStyle;rounded=1;sketch=0;orthogonalLoop=1;jettySize=auto;html=1;exitX=0.5;exitY=1;exitDx=0;exitDy=0;entryX=0.5;entryY=0;entryDx=0;entryDy=0;shadow=1;labelBackgroundColor=none;strokeColor=#F0F0F0;strokeWidth=1;fontFamily=consolas;fontSize=9;fontColor=#FFFFFF;" edge="1" parent="-hwlg1iBOtvZtLkaIZbr-39" source="-hwlg1iBOtvZtLkaIZbr-65" target="-hwlg1iBOtvZtLkaIZbr-47">
          <mxGeometry relative="1" as="geometry" />
        </mxCell>
        <mxCell id="-hwlg1iBOtvZtLkaIZbr-65" value="log outputs" style="whiteSpace=wrap;html=1;align=center;fontFamily=consolas;fontSize=8;fontStyle=1;fillColor=#545454;fontColor=#FAFAFA;strokeColor=#F7F7F7;swimlaneFillColor=none;rounded=1;shadow=1;labelBackgroundColor=none;" vertex="1" parent="-hwlg1iBOtvZtLkaIZbr-39">
          <mxGeometry x="16" y="190" width="160" height="22.5" as="geometry" />
        </mxCell>
        <mxCell id="-hwlg1iBOtvZtLkaIZbr-58" style="edgeStyle=orthogonalEdgeStyle;rounded=1;sketch=0;orthogonalLoop=1;jettySize=auto;html=1;exitX=1;exitY=0.5;exitDx=0;exitDy=0;shadow=1;labelBackgroundColor=none;strokeColor=#F0F0F0;strokeWidth=1;fontFamily=consolas;fontSize=9;fontColor=#FFFFFF;entryX=0;entryY=0.024;entryDx=0;entryDy=0;entryPerimeter=0;" edge="1" parent="vavf1w2fCHCmIrN-eqjR-23" source="jcEzH6TltJ--Tu3BSwTK-64" target="vavf1w2fCHCmIrN-eqjR-227">
          <mxGeometry relative="1" as="geometry">
            <mxPoint x="435" y="220" as="targetPoint" />
            <mxPoint x="435" y="167.5" as="sourcePoint" />
          </mxGeometry>
        </mxCell>
        <mxCell id="-hwlg1iBOtvZtLkaIZbr-78" style="edgeStyle=orthogonalEdgeStyle;rounded=1;sketch=0;orthogonalLoop=1;jettySize=auto;html=1;exitX=0;exitY=0.5;exitDx=0;exitDy=0;shadow=1;labelBackgroundColor=none;strokeColor=#F0F0F0;strokeWidth=1;fontFamily=consolas;fontSize=9;fontColor=#FFFFFF;entryX=1;entryY=0.035;entryDx=0;entryDy=0;entryPerimeter=0;" edge="1" parent="vavf1w2fCHCmIrN-eqjR-23" source="vavf1w2fCHCmIrN-eqjR-186" target="-hwlg1iBOtvZtLkaIZbr-39">
          <mxGeometry relative="1" as="geometry">
            <mxPoint x="540" y="270" as="targetPoint" />
          </mxGeometry>
        </mxCell>
      </root>
    </mxGraphModel>
  </diagram>
</mxfile>
